<svg width="21" height="21" viewBox="0 0 21 21" fill="none" xmlns="http://www.w3.org/2000/svg">
<path d="M5.92228 17.0703C6.75849 17.0703 7.43728 17.7491 7.43728 18.5853C7.43728 19.4216 6.75838 20.0993 5.92228 20.0993C5.08606 20.0993 4.40828 19.4215 4.40828 18.5853C4.40828 17.7492 5.08595 17.0703 5.92228 17.0703ZM17.1747 17.0703C18.0109 17.0703 18.6897 17.7491 18.6897 18.5853C18.6897 19.4216 18.0108 20.0993 17.1747 20.0993C16.3386 20.0993 15.6597 19.4216 15.6597 18.5853C15.6597 17.7491 16.3385 17.0703 17.1747 17.0703ZM1.27634 0.500378L1.37778 0.510988L3.45778 0.870988C3.75673 0.922729 3.99112 1.14809 4.05956 1.43641L4.07725 1.54727L4.31198 4.349H18.4089C19.632 4.349 20.5819 5.38969 20.4945 6.58877L20.4781 6.73941L19.5291 13.2978C19.3545 14.4997 18.3626 15.4044 17.1662 15.4808L17.0019 15.486H6.08988C4.81708 15.486 3.74843 14.5519 3.56443 13.3095L3.54551 13.1457L2.63098 2.25L1.12197 1.98901C0.747839 1.92426 0.48676 1.59272 0.500256 1.22354L0.510866 1.12209C0.575619 0.747961 0.907155 0.486882 1.27634 0.500378ZM18.4089 5.849H4.43798L5.04028 13.0207C5.08258 13.5277 5.47867 13.9255 5.97394 13.9797L6.08988 13.986H17.0019C17.485 13.986 17.9005 13.6584 18.0208 13.1998L18.0446 13.0826L18.9936 6.52465C19.0409 6.19769 18.8128 5.90242 18.497 5.85548L18.4089 5.849ZM15.3984 8.045C15.8126 8.045 16.1484 8.38079 16.1484 8.795C16.1484 9.1747 15.8662 9.48849 15.5001 9.53815L15.3984 9.545H12.6254C12.2112 9.545 11.8754 9.20921 11.8754 8.795C11.8754 8.41531 12.1575 8.10151 12.5236 8.05185L12.6254 8.045H15.3984Z" fill="#A3A7A7"/>
</svg>
